<svg id="Layer_1" data-name="Layer 1" xmlns="http://www.w3.org/2000/svg" viewBox="0 0 754.99 351.34"><defs><style>.cls-1,.cls-2{fill:#c2b59b;}.cls-2,.cls-29,.cls-32,.cls-33,.cls-34,.cls-4,.cls-5,.cls-8,.cls-9{stroke:#fff;}.cls-16,.cls-17,.cls-18,.cls-19,.cls-2,.cls-20,.cls-29,.cls-32,.cls-33,.cls-34,.cls-4,.cls-40,.cls-5,.cls-7,.cls-8,.cls-9{stroke-miterlimit:10;}.cls-2{stroke-width:4px;}.cls-3{fill:#8ad6f5;}.cls-4{fill:#4ca045;}.cls-4,.cls-5,.cls-7,.cls-8{stroke-width:3.11px;}.cls-19,.cls-20,.cls-41,.cls-5,.cls-6,.cls-9{fill:#fff;}.cls-16,.cls-17,.cls-40,.cls-7{fill:none;}.cls-7{stroke:#568390;}.cls-8{fill:#f7941d;}.cls-9{stroke-width:2.07px;}.cls-10{fill:#c49a6c;}.cls-11{fill:#8dc63f;}.cls-12{fill:#be1e2d;}.cls-13{fill:#2e3192;}.cls-14{fill:#a97c50;}.cls-15{fill:#fff200;}.cls-16,.cls-17,.cls-18,.cls-19,.cls-40{stroke:#231f20;}.cls-17{stroke-width:1.13px;}.cls-18,.cls-29,.cls-37{fill:#ed1c24;}.cls-18{stroke-width:0.71px;}.cls-19{stroke-width:0.25px;}.cls-20{stroke:#a7a9ac;stroke-width:0.22px;}.cls-21{font-size:6px;font-family:MyriadPro-Regular, Myriad Pro;}.cls-21,.cls-22{fill:#231f20;}.cls-22{font-size:8px;font-family:BankGothicBT-Medium, BankGothic Md BT;font-weight:500;letter-spacing:0.02em;}.cls-23{letter-spacing:-0.02em;}.cls-24{letter-spacing:-0.1em;}.cls-25{letter-spacing:0.02em;}.cls-26{fill:#ddceb0;}.cls-27{fill:#dfb665;}.cls-28{fill:#655624;}.cls-29{stroke-width:0.83px;}.cls-30{fill:#f9ed32;}.cls-31{fill:#ffd974;}.cls-32{fill:#e1b991;}.cls-32,.cls-33,.cls-34{stroke-width:0.52px;}.cls-33{fill:#cf6c92;}.cls-34{fill:#e4b3c3;}.cls-35{fill:#6d6e71;}.cls-36{fill:#58595b;}.cls-38{fill:#009444;}.cls-39{fill:#939598;}.cls-40{stroke-width:1.32px;}.cls-41{opacity:0.51;}</style></defs><path class="cls-1" d="M176.16,183l-10.73,10.73L86.75,115.07,85,109.43a11.62,11.62,0,0,0-4.2-5.85L66.28,92.82C58.51,87.08,35.72,65.62,32.15,57c-2.71-6.6-3-15,0-17.94h0Z" transform="translate(-18.59 -36.8)"/><path class="cls-2" d="M163.9,80.73c12.63-12.63,16.27-29.46,8.13-37.6s-25-4.49-37.59,8.14c-8.94,8.94-13.37,20-12.31,28.57L21.42,180.55l13.2,13.2L135.33,93C143.91,94.1,155,89.67,163.9,80.73Z" transform="translate(-18.59 -36.8)"/><path class="cls-3" d="M559.48,116.27a69.82,69.82,0,0,1-5.14,26.41c-.54,1.34-1.13,2.67-1.76,4a70.37,70.37,0,0,1-45.66,37.62c-1.18.31-2.37.58-3.57.82a68.8,68.8,0,0,1-7.25,1.09c-2.25.22-4.54.33-6.85.33s-4.6-.11-6.85-.33a69.77,69.77,0,0,1-23-6.3c-1.06-.5-2.11-1-3.14-1.57A70.57,70.57,0,0,1,428.75,152c-.69-1.17-1.35-2.37-2-3.58a70.24,70.24,0,1,1,132.71-32.12Z" transform="translate(-18.59 -36.8)"/><path class="cls-4" d="M503.35,185.08a68.8,68.8,0,0,1-7.25,1.09c-2.25.22-4.54.33-6.85.33s-4.6-.11-6.85-.33a69.77,69.77,0,0,1-23-6.3c-1.06-.5-2.11-1-3.14-1.57A70.57,70.57,0,0,1,428.75,152l12.76-22.12,15,25.94,15-25.94,8.42,14.58,8.53,14.78Z" transform="translate(-18.59 -36.8)"/><path class="cls-4" d="M552.58,146.64a70.37,70.37,0,0,1-45.66,37.62c-1.18.31-2.37.58-3.57.82a68.8,68.8,0,0,1-7.25,1.09c-2.25.22-4.54.33-6.85.33s-4.6-.11-6.85-.33a69.77,69.77,0,0,1-23-6.3l20.45-35.44,3.79-6.56L498,113.05l17.6,30.48,17.6-30.48,14.32,24.82Z" transform="translate(-18.59 -36.8)"/><polygon class="cls-5" points="514.61 76.26 497.01 106.74 479.41 76.26 497.01 45.78 514.61 76.26"/><polygon class="cls-5" points="452.87 93.06 437.9 119 422.92 93.06 437.9 67.12 452.87 93.06"/><path class="cls-6" d="M522.61,69l-8.8.68c-4.06.31-7.26,1.49-8.28,3l-2.21,3.37c-2,3-11.35,4.14-17.64,2.11l-7-2.27a26.28,26.28,0,0,0-11.49-.68l-8.21,1.36c-7.33,1.21-15.65-1-15.64-4.1l0-3.51c0-1.13-1.14-2.21-3.1-3a70.25,70.25,0,0,1,82.59-11.42l-.46.37c-1.81,1.43-1.37,3.17,1.16,4.49L529,62.27C533.85,64.82,530.46,68.4,522.61,69Z" transform="translate(-18.59 -36.8)"/><path class="cls-7" d="M559.48,116.27a69.82,69.82,0,0,1-5.14,26.41c-.54,1.34-1.13,2.67-1.76,4a70.37,70.37,0,0,1-45.66,37.62c-1.18.31-2.37.58-3.57.82a68.8,68.8,0,0,1-7.25,1.09c-2.25.22-4.54.33-6.85.33s-4.6-.11-6.85-.33a69.77,69.77,0,0,1-23-6.3c-1.06-.5-2.11-1-3.14-1.57A70.57,70.57,0,0,1,428.75,152c-.69-1.17-1.35-2.37-2-3.58a70.24,70.24,0,1,1,132.71-32.12Z" transform="translate(-18.59 -36.8)"/><circle class="cls-8" cx="279.1" cy="79.48" r="70.23"/><rect class="cls-9" x="241.47" y="56.37" width="75.27" height="54.02" rx="3.99"/><path class="cls-6" d="M307.16,85.36a4.21,4.21,0,0,1,4.21,4.2V93.7H284V89.56a4.2,4.2,0,0,1,4.2-4.2h18.94m0-4.54H288.22a8.75,8.75,0,0,0-8.74,8.74v8.68h36.43V89.56a8.76,8.76,0,0,0-8.75-8.74Z" transform="translate(-18.59 -36.8)"/><path class="cls-6" d="M297.69,118.22c2.5,0,2.51-3.89,0-3.89s-2.5,3.89,0,3.89Z" transform="translate(-18.59 -36.8)"/><path class="cls-10" d="M173.7,340.46c-15.9,35-56-21.31-65.7-10.59-10.52,11.59,33.54,57.81-32.41,27.82-41.31-18.79-64.37-57-51.5-85.26s56.79-36,98.11-17.23S186.57,312.16,173.7,340.46Z" transform="translate(-18.59 -36.8)"/><ellipse class="cls-11" cx="71.47" cy="261.68" rx="5.13" ry="8.63" transform="translate(-215.67 186.53) rotate(-66.6)"/><ellipse class="cls-12" cx="100.2" cy="265.54" rx="5.13" ry="8.63" transform="translate(-201.88 215.23) rotate(-66.6)"/><ellipse class="cls-13" cx="127.86" cy="279.12" rx="5.13" ry="8.63" transform="translate(-197.67 248.8) rotate(-66.6)"/><ellipse class="cls-14" cx="147.04" cy="298.8" rx="5.13" ry="8.63" transform="translate(-204.17 278.26) rotate(-66.6)"/><ellipse class="cls-15" cx="152.6" cy="319.29" rx="5.13" ry="8.63" transform="translate(-219.63 295.71) rotate(-66.6)"/><ellipse class="cls-6" cx="77.87" cy="327" rx="5.13" ry="8.63" transform="translate(-271.75 231.78) rotate(-66.6)"/><circle class="cls-16" cx="673.49" cy="78.23" r="63.56"/><circle class="cls-16" cx="673.49" cy="78.23" r="43.93"/><circle class="cls-17" cx="673.49" cy="78.23" r="24.85"/><circle class="cls-18" cx="673.49" cy="78.23" r="5.74"/><circle class="cls-19" cx="703.33" cy="60.68" r="2.69"/><circle class="cls-19" cx="700.65" cy="119.48" r="2.69"/><circle class="cls-19" cx="661.49" cy="84.82" r="2.69"/><circle class="cls-19" cx="631.68" cy="59.9" r="2.69"/><line class="cls-20" x1="673.49" y1="12.78" x2="673.49" y2="143.69"/><line class="cls-20" x1="738.94" y1="78.23" x2="608.04" y2="78.23"/><text class="cls-21" transform="translate(658.81 76.62)">9</text><text class="cls-21" transform="translate(638.14 76.62)">8</text><text class="cls-21" transform="translate(618.14 76.62)">7</text><text class="cls-21" transform="translate(600.64 76.62)">6</text><text class="cls-22" transform="translate(591.98 10.01)">ALMOST THERE SHOOTING <tspan class="cls-23" x="130.13" y="0">R</tspan><tspan x="136.41" y="0">ANGE</tspan></text><text class="cls-22" transform="translate(596.92 153.12)">WHERE BULLEYES ARE NOVE<tspan class="cls-24" x="137.79" y="0">L</tspan><tspan class="cls-25" x="142.46" y="0">TY</tspan></text><path class="cls-26" d="M364.84,326.35v.06a2.29,2.29,0,0,1-2.28,2.29H232.27a2.29,2.29,0,0,1-2.28-2.29v-.06Z" transform="translate(-18.59 -36.8)"/><path class="cls-27" d="M364.84,326.41v11.34a8.22,8.22,0,0,1-8.21,8.21H238.21a8.22,8.22,0,0,1-8.22-8.21V326.41a2.29,2.29,0,0,0,2.28,2.29H362.56A2.29,2.29,0,0,0,364.84,326.41Z" transform="translate(-18.59 -36.8)"/><rect class="cls-28" x="211.4" y="275.93" width="134.84" height="12.27" rx="4.95"/><rect class="cls-29" x="211.4" y="267.9" width="74.07" height="5.55" rx="2.06"/><rect class="cls-29" x="269.18" y="267.9" width="75.58" height="5.55" rx="2.08"/><path class="cls-30" d="M298,311.07H230.55s25.23,3.88,42.95,8.51C292,324.42,298,335,298,335s6-10.59,24.47-15.43c17.72-4.63,42.95-8.51,42.95-8.51Z" transform="translate(-18.59 -36.8)"/><path class="cls-27" d="M247.49,231h62.67a36.09,36.09,0,0,1,36.09,36.09v0a0,0,0,0,1,0,0H211.4a0,0,0,0,1,0,0v0A36.09,36.09,0,0,1,247.49,231Z"/><path class="cls-31" d="M261.11,278.37c.56.76-1.25,2.87-3.05,4.2s-3.31.81-3.46.62-.2-1.8,1.6-3.14S260.55,277.61,261.11,278.37Z" transform="translate(-18.59 -36.8)"/><path class="cls-31" d="M291,288c-.3-.89,2.06-2.36,4.17-3.09s3.4.23,3.49.45-.35,1.78-2.47,2.51S291.32,288.92,291,288Z" transform="translate(-18.59 -36.8)"/><path class="cls-31" d="M330.88,295.41c0-.94,2.75-1.5,5-1.45s3.11,1.4,3.12,1.64-1,1.55-3.19,1.49S330.86,296.36,330.88,295.41Z" transform="translate(-18.59 -36.8)"/><path class="cls-31" d="M334.93,272.88c.12.94-2.49,1.9-4.71,2.19s-3.28-.91-3.33-1.15.71-1.67,2.93-1.95S334.8,271.94,334.93,272.88Z" transform="translate(-18.59 -36.8)"/><path class="cls-31" d="M342.49,274c.35-.88,3.1-.45,5.18.37s2.43,2.39,2.36,2.62-1.43,1.12-3.51.29S342.15,274.85,342.49,274Z" transform="translate(-18.59 -36.8)"/><path class="cls-31" d="M303.61,295.68c-.15-.93,2.42-2,4.63-2.35s3.31.79,3.36,1-.65,1.69-2.85,2.06S303.76,296.61,303.61,295.68Z" transform="translate(-18.59 -36.8)"/><path class="cls-31" d="M239.6,294.79c-.16-.93,2.4-2,4.61-2.39s3.31.76,3.37,1-.63,1.7-2.84,2.09S239.76,295.72,239.6,294.79Z" transform="translate(-18.59 -36.8)"/><path class="cls-31" d="M269,292.32c.29-.9,3.06-.68,5.19,0s2.6,2.2,2.54,2.44-1.34,1.22-3.48.55S268.67,293.22,269,292.32Z" transform="translate(-18.59 -36.8)"/><path class="cls-31" d="M286.08,272.09c.79.51-.14,3.13-1.34,5s-2.8,1.94-3,1.82-.83-1.61.37-3.5S285.28,271.59,286.08,272.09Z" transform="translate(-18.59 -36.8)"/><path class="cls-31" d="M305,267.31c.32-.89,3.08-.56,5.19.19s2.51,2.3,2.44,2.54-1.39,1.16-3.5.41S304.69,268.2,305,267.31Z" transform="translate(-18.59 -36.8)"/><path class="cls-31" d="M322.5,283.22c.32.89-2,2.39-4.13,3.15s-3.4-.19-3.49-.41.33-1.78,2.44-2.54S322.18,282.33,322.5,283.22Z" transform="translate(-18.59 -36.8)"/><path class="cls-31" d="M342.26,286.07c.17-.92,2.95-1.05,5.15-.65s2.85,1.86,2.83,2.1-1.19,1.38-3.39,1S342.1,287,342.26,286.07Z" transform="translate(-18.59 -36.8)"/><path class="cls-31" d="M261.21,268.23c0-.94,2.7-1.59,4.93-1.62s3.16,1.29,3.17,1.54-.9,1.57-3.13,1.59S261.22,269.17,261.21,268.23Z" transform="translate(-18.59 -36.8)"/><polygon class="cls-32" points="481.1 249.08 480.69 250.65 492.19 252.8 493.14 249.08 496.39 236.43 496.57 235.74 496.22 235.74 490.07 235.74 489.72 235.74 484.52 235.74 484.35 236.43 481.1 249.08"/><polygon class="cls-32" points="461.6 324.99 461.12 326.84 461.52 328.38 472.26 330.38 473.64 324.99 475.11 319.3 463.61 317.15 461.6 324.99"/><polygon class="cls-32" points="463.9 337.64 467.15 350.29 470.4 337.64 472.26 330.38 461.52 328.38 463.9 337.64"/><polygon class="cls-32" points="477.85 261.73 477.85 261.73 489.34 263.88 489.89 261.73 492.19 252.8 480.69 250.65 477.85 261.73"/><polygon class="cls-32" points="474.6 274.38 472.15 283.9 483.65 286.05 486.49 274.96 475 272.82 474.6 274.38"/><polygon class="cls-32" points="471.35 287.03 469.31 294.99 480.8 297.13 483.39 287.03 483.65 286.05 472.15 283.9 471.35 287.03"/><polygon class="cls-32" points="489.34 263.88 477.85 261.73 475 272.82 486.49 274.96 486.64 274.38 489.34 263.88"/><polygon class="cls-32" points="468.1 299.69 466.46 306.07 477.95 308.21 480.14 299.69 480.8 297.13 469.31 294.99 468.1 299.69"/><polygon class="cls-32" points="464.85 312.34 463.61 317.15 475.11 319.3 476.89 312.34 477.95 308.21 466.46 306.07 464.85 312.34"/><polygon class="cls-32" points="462.55 274.38 460.66 281.75 472.15 283.9 474.6 274.38 475 272.82 463.5 270.67 462.55 274.38"/><polygon class="cls-32" points="469.2 248.5 480.69 250.65 481.1 249.08 484.35 236.43 484.52 235.74 484.17 235.74 483.57 235.74 483.22 235.74 478.02 235.74 477.67 235.74 477.07 235.74 476.72 235.74 472.48 235.74 472.3 236.43 469.2 248.5"/><polygon class="cls-32" points="465.8 261.73 463.5 270.67 475 272.82 477.85 261.73 466.35 259.59 465.8 261.73"/><polygon class="cls-32" points="459.3 287.03 457.81 292.84 469.31 294.99 471.35 287.03 472.15 283.9 460.66 281.75 459.3 287.03"/><polygon class="cls-32" points="480.69 250.65 469.2 248.5 469.05 249.08 466.35 259.59 477.85 261.73 477.85 261.73 480.69 250.65"/><polygon class="cls-32" points="468.1 299.69 469.31 294.99 457.81 292.84 456.05 299.69 455.1 303.39 455.25 303.98 466.46 306.07 468.1 299.69"/><polygon class="cls-32" points="463.61 317.15 458.38 316.18 460.65 324.99 461.12 326.84 461.6 324.99 463.61 317.15"/><polygon class="cls-32" points="464.85 312.34 466.46 306.07 455.25 303.98 457.4 312.34 458.38 316.18 463.61 317.15 464.85 312.34"/><polygon class="cls-32" points="459.3 287.03 460.66 281.75 449.16 279.61 449.08 279.94 450.9 287.03 452.12 291.77 457.81 292.84 459.3 287.03"/><polygon class="cls-32" points="465.8 261.73 466.35 259.59 454.86 257.44 453.76 261.73 452.01 268.52 463.5 270.67 465.8 261.73"/><polygon class="cls-32" points="463.5 270.67 452.01 268.52 450.51 274.38 449.16 279.61 460.66 281.75 462.55 274.38 463.5 270.67"/><polygon class="cls-32" points="469.05 249.08 469.2 248.5 457.7 246.36 457 249.08 454.86 257.44 466.35 259.59 469.05 249.08"/><polygon class="cls-32" points="457.81 292.84 452.12 291.77 454.15 299.69 455.1 303.39 456.05 299.69 457.81 292.84"/><polygon class="cls-32" points="457.7 246.36 469.2 248.5 472.3 236.43 472.48 235.74 472.12 235.74 471.52 235.74 471.17 235.74 470.57 235.74 470.22 235.74 465.98 235.74 465.63 235.74 465.02 235.74 464.67 235.74 464.07 235.74 463.72 235.74 460.43 235.74 460.25 236.43 457.7 246.36"/><polygon class="cls-32" points="453.76 261.73 454.86 257.44 443.36 255.29 443.06 256.49 444.4 261.73 445.85 267.37 452.01 268.52 453.76 261.73"/><polygon class="cls-32" points="457.7 246.36 446.21 244.21 444.96 249.08 443.36 255.29 454.86 257.44 457 249.08 457.7 246.36"/><polygon class="cls-32" points="448.98 279.57 449.08 279.94 449.16 279.61 448.98 279.57"/><polygon class="cls-32" points="446.21 244.21 457.7 246.36 460.25 236.43 460.43 235.74 460.08 235.74 459.48 235.74 459.13 235.74 458.53 235.74 458.17 235.74 457.57 235.74 457.22 235.74 453.93 235.74 453.58 235.74 452.98 235.74 452.63 235.74 452.03 235.74 451.68 235.74 451.07 235.74 450.72 235.74 448.38 235.74 448.21 236.43 446.21 244.21"/><polygon class="cls-32" points="450.51 274.38 452.01 268.52 445.85 267.37 447.65 274.38 448.98 279.57 449.16 279.61 450.51 274.38"/><polygon class="cls-32" points="444.96 249.08 446.21 244.21 439.58 242.97 441.15 249.08 442.72 255.17 443.36 255.29 444.96 249.08"/><polygon class="cls-32" points="442.72 255.17 443.06 256.49 443.36 255.29 442.72 255.17"/><polygon class="cls-32" points="448.21 236.43 448.38 235.74 448.03 235.74 447.43 235.74 447.08 235.74 446.48 235.74 446.13 235.74 445.53 235.74 445.18 235.74 444.58 235.74 444.22 235.74 441.89 235.74 441.53 235.74 440.93 235.74 440.58 235.74 439.98 235.74 439.63 235.74 439.03 235.74 438.68 235.74 438.08 235.74 437.73 235.74 437.9 236.43 439.58 242.97 446.21 244.21 448.21 236.43"/><path class="cls-33" d="M521.65,266.43c0,5-1,6.11-6.65,6.11s-8.63,5.14-14.16,5.14-4.66-5.53-8.6-5.14c-2.23.21-4.42,3.2-6.5,3.53-7.8,1.25-7,5.35-13,5.35s-7.15-4.16-9.75-6.86-4-1.1-8.27-1.1-4.9-1.61-4.9-7c0-1.17,0-2.33.13-3.47.34,3,1.48,3.93,4.77,3.93,4.24,0,5.68-1.58,8.27,1.12s3.79,6.85,9.75,6.85,5.2-4.1,13-5.34c2.08-.34,4.27-3.33,6.5-3.55,3.94-.37,3.06,5.15,8.6,5.15S509.36,266,515,266c4.5,0,6-.71,6.48-3.5C521.59,263.78,521.65,265.1,521.65,266.43Z" transform="translate(-18.59 -36.8)"/><path class="cls-34" d="M521.5,262.49c-.43,2.79-2,3.5-6.47,3.5-5.65,0-8.64,5.13-14.17,5.13s-4.66-5.52-8.6-5.15c-2.22.22-4.42,3.21-6.5,3.55-7.8,1.24-7,5.34-13,5.34S465.61,270.7,463,268s-4-1.12-8.27-1.12c-3.29,0-4.43-1-4.77-3.93,1.54-21,17-37.48,35.79-37.48S519.77,241.72,521.5,262.49Z" transform="translate(-18.59 -36.8)"/><rect class="cls-35" x="638.01" y="203.55" width="46.18" height="131.89" rx="3.39"/><path class="cls-36" d="M732.71,256.12c-3.41,14.21-15.52,24.73-29.93,24.73V256.12Z" transform="translate(-18.59 -36.8)"/><path class="cls-36" d="M702.78,324.08V291.16h30.89C733.67,309.33,719.84,324.08,702.78,324.08Z" transform="translate(-18.59 -36.8)"/><path class="cls-36" d="M702.78,367.3V334.39h30.89C733.67,352.56,719.84,367.3,702.78,367.3Z" transform="translate(-18.59 -36.8)"/><path class="cls-36" d="M656.6,256.12v24.73c-14.4,0-26.52-10.52-29.93-24.73Z" transform="translate(-18.59 -36.8)"/><path class="cls-36" d="M656.6,324.08V291.16H625.71C625.71,309.33,639.54,324.08,656.6,324.08Z" transform="translate(-18.59 -36.8)"/><path class="cls-36" d="M656.6,367.3V334.39H625.71C625.71,352.56,639.54,367.3,656.6,367.3Z" transform="translate(-18.59 -36.8)"/><ellipse class="cls-37" cx="661.1" cy="227.6" rx="13.98" ry="14.9"/><ellipse class="cls-30" cx="661.1" cy="270.82" rx="13.98" ry="14.9"/><ellipse class="cls-38" cx="661.1" cy="314.05" rx="13.98" ry="14.9"/><path class="cls-39" d="M656.6,247.94v8.18H626.67a35,35,0,0,1-1-8.18Z" transform="translate(-18.59 -36.8)"/><path class="cls-39" d="M733.67,247.94a35,35,0,0,1-1,8.18H702.78v-8.18Z" transform="translate(-18.59 -36.8)"/><path class="cls-39" d="M656.6,291.16v8.18H626.67a34.89,34.89,0,0,1-1-8.18Z" transform="translate(-18.59 -36.8)"/><path class="cls-39" d="M733.67,291.16a34.89,34.89,0,0,1-1,8.18H702.78v-8.18Z" transform="translate(-18.59 -36.8)"/><path class="cls-39" d="M656.6,334.39v8.18H626.67a34.89,34.89,0,0,1-1-8.18Z" transform="translate(-18.59 -36.8)"/><path class="cls-39" d="M733.67,334.39a34.89,34.89,0,0,1-1,8.18H702.78v-8.18Z" transform="translate(-18.59 -36.8)"/><path class="cls-40" d="M758.45,285.86" transform="translate(-18.59 -36.8)"/><ellipse class="cls-41" cx="685.67" cy="256.61" rx="2.75" ry="4.71" transform="translate(8.69 540) rotate(-46.45)"/><ellipse class="cls-41" cx="685.67" cy="300.21" rx="2.75" ry="4.71" transform="translate(-22.91 553.57) rotate(-46.45)"/><ellipse class="cls-41" cx="685.67" cy="342.57" rx="2.75" ry="4.71" transform="translate(-53.61 566.74) rotate(-46.45)"/></svg>