<svg id="Layer_2" data-name="Layer 2" xmlns="http://www.w3.org/2000/svg" viewBox="0 0 276.28 672.15"><defs><style>.cls-1{fill:#231f20;}</style></defs><path class="cls-1" d="M232,749.33c-15.78-3.89-50.78-19.89-45.17-45.47-3.5-3.67-8.08-11-10.33-15.58C168.22,722.89,204.81,746.28,232,749.33Z" transform="translate(-160.83 -77.18)"/><path class="cls-1" d="M230.17,740.58S131.33,662,216.58,598c2.92-6,5.25-11.5,11.92-21.17C97.17,661.67,230.17,740.58,230.17,740.58Z" transform="translate(-160.83 -77.18)"/><path class="cls-1" d="M191.33,688.67c6.23-34.11,34.34-63.25,53.78-74.56,12.12-7,27.5-18.5,43.17-43.11a151.45,151.45,0,0,1-22.67,9.61c-5.92,8.15-17.94,17.95-25.5,22.67-10.55,6.59-24.78,18.61-32.67,28.28-11.27,13.81-17.27,23.19-22.44,37.52A72.11,72.11,0,0,0,191.33,688.67Z" transform="translate(-160.83 -77.18)"/><path class="cls-1" d="M210.36,650.5c0,14.78,1.69,55.67,22.44,78.5-20.91-31.92-9-61.67-5.3-63.86-4.28-9.14-4.17-24.14-.92-33.7A105.76,105.76,0,0,0,210.36,650.5Z" transform="translate(-160.83 -77.18)"/><path class="cls-1" d="M210.36,625.42a114.4,114.4,0,0,1,17.75-15.64c8.17-27.95,25.18-49.89,59.78-78.89,2-3.14,7.78-19.14,8.33-22.67-5.78,4-10,10.94-13.33,10.78-4.56-.22-5.81-10.92-1.56-19.83-8.66,11.75-3.89,22.22-14.44,33.39C247.67,552.89,215.44,590,210.36,625.42Z" transform="translate(-160.83 -77.18)"/><path class="cls-1" d="M239.35,588c70.43-22.43,95.62-41.77,99.32-108-2.45,4.86-7.84,13.06-11.78,17.11-6.53,42-27,54.78-73.54,70.08C247.39,574.24,244,579.77,239.35,588Z" transform="translate(-160.83 -77.18)"/><path class="cls-1" d="M274.83,557.67c8.95-3.48,20.7-9.7,23.39-12,12.28-25.34,19.8-52.46,22.34-85.5a94.29,94.29,0,0,0-11.89-27.11C309.33,479.39,294.5,535.67,274.83,557.67Z" transform="translate(-160.83 -77.18)"/><path class="cls-1" d="M314.25,508.92c47.19-47.7,35.95-81.81,19.16-125.5-1,5.09-2,13.33-3.33,18.58,16.09,39.5,11.92,57.33-11,85.63C318.48,493.18,316.37,503.4,314.25,508.92Z" transform="translate(-160.83 -77.18)"/><path class="cls-1" d="M324.72,476.83c2.55-3.5,8.77-14.72,10.45-20.33-5.5-35.28-34.89-53.94-27.17-82.17-3.47-5.08-7.06-11.37-8.78-16.46C281.56,426.11,322.11,419.56,324.72,476.83Z" transform="translate(-160.83 -77.18)"/><path class="cls-1" d="M314.12,403.9c1,3.48,7.24,13,10.71,19.6,7.82-54.5,10.38-61.05,13.21-74.22,3-14,15.74-16.39,14.6-35.95-1.94,14.57-13.35,20.95-14.31,13.67-.92-6.44.45-14.22-3.89-21a51.65,51.65,0,0,0-9,11.67C329.75,334.08,319.67,379.33,314.12,403.9Z" transform="translate(-160.83 -77.18)"/><path class="cls-1" d="M316.78,383.42c1.5-6.59,2-12.33,3.33-18.67-16.67-22.42-22.39-39.86-9.17-71.19-2-2.56-6-8.45-8.55-10.78C287.72,313.44,287,342.67,316.78,383.42Z" transform="translate(-160.83 -77.18)"/><path class="cls-1" d="M313.22,351.11c6.45-50,29.11-41.33,40.67-83.67-6.06,4.61-8,6.62-15.81,10.39-10.33,25.09-26,20.39-31.42,56.73C308.11,342.33,313.22,351.11,313.22,351.11Z" transform="translate(-160.83 -77.18)"/><path class="cls-1" d="M318.44,301.11c2.6-2.66,5.76-5.8,8.45-9.11-13.71-16.51-24.08-28-40.45-35.56-13.4-6.22-28.11-11-48.88-44.66,12.44,33.66,30.39,44,42.88,50.89C300.86,273.92,309.17,287.83,318.44,301.11Z" transform="translate(-160.83 -77.18)"/><path class="cls-1" d="M312,272.67c1.58,1.75,8.11,7.91,10.08,10.58,47.25-19.92,53.25-45.58,58.59-80.25-9.25,35.25-22.11,49-37.34,46.56-18.87-3-19.77-16.67-20.33-38.34C316.11,231.67,326.22,251.56,312,272.67Z" transform="translate(-160.83 -77.18)"/><path class="cls-1" d="M342.33,247.44c6.92,1.48,11.92-.77,16.23-3.81,19.83-41.73,23.27-72.13,28.77-94.46,8.37-34,26.67-59.84,49.78-37.5-20.44-26.5-47.41-1-55.61,30C369.37,187.5,363.11,225.67,342.33,247.44Z" transform="translate(-160.83 -77.18)"/><path class="cls-1" d="M328,235.42a17.58,17.58,0,0,0,4.83,7.36c38.06-44.78,13.5-75.34-3.7-93.61C365.33,193.93,340.89,223.67,328,235.42Z" transform="translate(-160.83 -77.18)"/><path class="cls-1" d="M345.74,186.67c-11.23,7.55-17.12,8-37.34,3,14.78,9.33,29.44,7.22,37.93,3.5A33.32,33.32,0,0,0,345.74,186.67Z" transform="translate(-160.83 -77.18)"/><path class="cls-1" d="M352.24,182.42c13.84-16.25,18.43-41.25,5.2-64.59a50.7,50.7,0,0,1,6.45-4.72c10.17,19.15,14.19,52.18-10.25,75.34A22.76,22.76,0,0,0,352.24,182.42Z" transform="translate(-160.83 -77.18)"/><path class="cls-1" d="M318,239.83c.58,3.29-.15,9.2-.41,12.2-4.37,1.11-18.15,5.19-39.59-5.14-15.49-7.46-36.58-21.26-57.67-91.39C206,107.83,180,103,160.83,134c9.67-22.92,34.17-35.33,51.67-13.33,24.07,30.25,37.94,36.78,75.5,37.75a74.43,74.43,0,0,0,.29,7.62c-22.05-.14-41.79-3.71-58.12-16.87C241.59,206.85,276.14,250.39,318,239.83Z" transform="translate(-160.83 -77.18)"/><path class="cls-1" d="M293.42,139.21c2.42.24,6.37,1.47,11.35,1.37-12.66,24.36-7.64,47.87,10.59,85.52C279.59,177.82,291.54,145.71,293.42,139.21Z" transform="translate(-160.83 -77.18)"/><path class="cls-1" d="M300.93,158.08c9.5-.5,17.86-5,24.83-13.33-6,9.33-9.62,14.74-25.5,20.44A36.32,36.32,0,0,1,300.93,158.08Z" transform="translate(-160.83 -77.18)"/><path class="cls-1" d="M246.5,147.78c-.25-57.95,54.17-74.06,105.17-39a54.61,54.61,0,0,1,7.77-3.75C306.58,57,238.56,83.33,234.82,140.33,237.8,142.61,243.28,146.89,246.5,147.78Z" transform="translate(-160.83 -77.18)"/><path class="cls-1" d="M235.83,156.11a74.27,74.27,0,0,0,12.45,6.22c9.16,32.92,42.3,61.42,58.3,65.67C272.75,218.33,244.94,187.44,235.83,156.11Z" transform="translate(-160.83 -77.18)"/><path class="cls-1" d="M181.25,107.67c5.92-5.67,14.92-13,29.17-11.34,13.14,1.56,16.11,5.14,35,7.56a56.11,56.11,0,0,0-7.22,12.55C212.06,102.73,206.11,92.78,181.25,107.67Z" transform="translate(-160.83 -77.18)"/><path class="cls-1" d="M261.5,107.5c-2,1.78-8.39,11.94-9.72,17.17,34.08,15.41,67.66,19.39,89.72,4.22a49.91,49.91,0,0,0-7.28-5.89c-12.89,8.42-50.64,5.54-64.55-6.25,18.16-1.25,21.83-3.18,31.16-3.89,1-2.71,3.25-5.44,4.84-7.44C286,106.8,273.14,106.11,261.5,107.5Z" transform="translate(-160.83 -77.18)"/><path class="cls-1" d="M297.62,124.75c2.6-8.92,10.49-22.47,20.32-29.83a48.13,48.13,0,0,1,11.12,4.25C320,105.06,313.44,116,308.67,126,305.46,125.79,299.75,125.46,297.62,124.75Z" transform="translate(-160.83 -77.18)"/><path class="cls-1" d="M317.06,114.89c14.66,2.36,25.27,9.72,41.5,32.89-3.67-14.45-20.67-37.11-36.95-39.34C319.94,110.78,318.17,113.11,317.06,114.89Z" transform="translate(-160.83 -77.18)"/><path class="cls-1" d="M341.5,118.28c12.89-12.42,37.83-20.56,62.72-18.39-31.25,1.78-46.89,12.44-56.66,24.72C345.56,122.33,343.17,120,341.5,118.28Z" transform="translate(-160.83 -77.18)"/><path class="cls-1" d="M332.63,85.17c2.87,1.44,6.84,3.75,9.7,5.33,20.75-8.33,29.19-12.48,63.5,1.67C388.39,81.28,361.27,68.58,332.63,85.17Z" transform="translate(-160.83 -77.18)"/></svg>